<?xml version="1.0" encoding="UTF-8"?>
<svg id="Layer_1" xmlns="http://www.w3.org/2000/svg" version="1.1" viewBox="0 0 500 500">
  <!-- Generator: Adobe Illustrator 29.5.1, SVG Export Plug-In . SVG Version: 2.1.0 Build 141)  -->
  <defs>
    <style>
      .st0 {
        fill:rgb(0, 174, 255);
      }

      .st1 {
        fill: #fff;
      }

      .st2 {
        display: none;
      }
    </style>
  </defs>
  <circle class="st0" cx="250" cy="250" r="245"/>
  <g>
    <path class="st1" d="M325.2093,172.0465h-68.3721v-35.3005c9.8593-2.9537,17.093-11.9925,17.093-22.8158,0-13.2163-10.7139-23.9302-23.9302-23.9302s-23.9302,10.7139-23.9302,23.9302c0,10.8233,7.2338,19.8621,17.093,22.8158v35.3005h-68.3721c-22.6585,0-41.0233,18.3647-41.0233,41.0233v129.907c0,22.6585,18.3647,41.0233,41.0233,41.0233h150.4186c22.6585,0,41.0233-18.3647,41.0233-41.0233v-129.907c0-22.6585-18.3647-41.0233-41.0233-41.0233ZM181.6279,250.6744c0-13.2163,10.7139-23.9302,23.9302-23.9302s23.9302,10.7139,23.9302,23.9302-10.7139,23.9302-23.9302,23.9302-23.9302-10.7139-23.9302-23.9302ZM294.1479,325.535c-13.5035,6.9398-28.771,10.6045-44.1479,10.6045s-30.6444-3.6647-44.1479-10.6045c-3.3571-1.7298-4.6835-5.8458-2.9605-9.2097,1.723-3.3502,5.839-4.6835,9.2097-2.9605,23.4858,12.0745,52.3115,12.0745,75.7973,0,3.3571-1.723,7.4799-.3965,9.2097,2.9605,1.723,3.3571.4034,7.4799-2.9605,9.2097ZM294.4419,274.6047c-13.2163,0-23.9302-10.7139-23.9302-23.9302s10.7139-23.9302,23.9302-23.9302,23.9302,10.7139,23.9302,23.9302-10.7139,23.9302-23.9302,23.9302Z"/>
    <circle class="st1" cx="294.4419" cy="250.6744" r="10.2558"/>
    <circle class="st1" cx="205.5581" cy="250.6744" r="10.2558"/>
    <path class="st1" d="M386.7442,233.5814h-6.8372v88.8837h6.8372c11.3293,0,20.5116-9.1824,20.5116-20.5116v-47.8605c0-11.3293-9.1824-20.5116-20.5116-20.5116Z"/>
    <path class="st1" d="M120.093,233.5814h-6.8372c-11.3293,0-20.5116,9.1824-20.5116,20.5116v47.8605c0,11.3293,9.1824,20.5116,20.5116,20.5116h6.8372v-88.8837Z"/>
  </g>
  <g class="st2">
    <path class="st1" d="M248.1094,244.5167c19.8301,0,37.0014-7.1122,51.0315-21.1446,14.0301-14.0301,21.1423-31.1968,21.1423-51.0292s-7.1122-36.9945-21.1446-51.0292c-14.0324-14.0278-31.2014-21.1401-51.0292-21.1401s-36.9991,7.1122-51.0292,21.1423c-14.0301,14.0301-21.1446,31.1991-21.1446,51.0269s7.1145,37.0014,21.1469,51.0315c14.0324,14.0278,31.2014,21.1423,51.0269,21.1423Z"/>
    <path class="st1" d="M374.3942,330.5903c-.4046-5.8388-1.2231-12.2081-2.4279-18.9339-1.2162-6.7762-2.7822-13.182-4.6569-19.0368-1.9364-6.0514-4.57-12.0275-7.8255-17.7543-3.3789-5.944-7.3477-11.1198-11.8011-15.379-4.6569-4.4557-10.3586-8.0381-16.9518-10.6512-6.5704-2.5994-13.8518-3.9162-21.6407-3.9162-3.0589,0-6.0172,1.2551-11.7303,4.9747-3.5161,2.293-7.6289,4.9449-12.2195,7.8781-3.9253,2.5011-9.2429,4.8444-15.811,6.9659-6.4081,2.0735-12.9145,3.1252-19.3363,3.1252s-12.9259-1.0516-19.3409-3.1252c-6.5613-2.1193-11.8789-4.4626-15.7996-6.9636-4.5472-2.9057-8.6622-5.5576-12.2309-7.8827-5.7062-3.7196-8.6668-4.9747-11.7257-4.9747-7.7912,0-15.0703,1.3191-21.6384,3.9208-6.5887,2.6085-12.2926,6.1909-16.9541,10.6512-4.4511,4.2614-8.4222,9.435-11.7966,15.3767-3.2532,5.7268-5.8868,11.7005-7.8255,17.7566-1.8724,5.8548-3.4384,12.2584-4.6546,19.0345-1.2048,6.7167-2.0232,13.0882-2.4279,18.9408-.3978,5.7337-.599,11.6845-.599,17.6948,0,15.6419,4.9724,28.3049,14.7777,37.6438,9.6841,9.2155,22.498,13.8907,38.0805,13.8907h144.2837c15.5824,0,28.3917-4.6729,38.0782-13.8907,9.8076-9.3321,14.78-21.9974,14.78-37.6461-.0023-6.0377-.2058-11.9932-.6058-17.6994Z"/>
  </g>
</svg>